<?xml version="1.0" ?><!DOCTYPE svg  PUBLIC '-//W3C//DTD SVG 1.1//EN'  'http://www.w3.org/Graphics/SVG/1.1/DTD/svg11.dtd'><svg xmlns="http://www.w3.org/2000/svg" xmlns:xlink="http://www.w3.org/1999/xlink" version="1.1" id="Layer_1" width="512px" height="512px" viewBox="0 0 512 512" enable-background="new 0 0 512 512" xml:space="preserve"><g><g><g><path fill="#C7E0F5" d="M486,119.4v135.04l-0.01-0.02l-47.17-50.22c-22.67-24.13-59.78-24.13-82.45,0l-67.43,71.79     c-22.68,24.13-59.78,24.13-82.45,0l-25.58-27.23c-22.68-24.14-59.78-24.14-82.45,0L26,325.89V119.4C26,68.03,68.03,26,119.4,26     h273.19C443.96,26,486,68.03,486,119.4z"/></g></g><circle fill="#547DBF" cx="255.995" cy="135.377" r="45.759"/><path fill="#33A851" d="M486,254.44V392.6c0,51.37-42.04,93.4-93.41,93.4H119.4C68.03,486,26,443.97,26,392.6v-66.71l72.46-77.13   c22.67-24.14,59.77-24.14,82.45,0l25.58,27.23c22.67,24.13,59.77,24.13,82.45,0l67.43-71.79c22.67-24.13,59.78-24.13,82.45,0   l47.17,50.22L486,254.44z"/></g></svg>